<svg id="Layer_1" data-name="Layer 1" xmlns="http://www.w3.org/2000/svg" viewBox="0 0 1938.02 1825.63"><defs><style>.cls-1{fill:#fff;}</style></defs><title>Mamen fAMILY LOGO</title><path class="cls-1" d="M1587.21,386.1q81.74,0,143.71-9.53t104.22-39.51q42.24-30,63.34-85.14t21.11-146.44V53.72h-256.1V82.5c0,9.36-1.57,17.6-4.76,24.75a36,36,0,0,1-15,16.73q-10.21,6-30.65,6H1254.82V53.72H998.72V437.87h-24.3V53.72H718.32V130H360.06q-20.44,0-30.65-6a36,36,0,0,1-15-16.73q-4.79-10.73-4.77-24.75V53.72H53.55v51.76q0,91.25,21.12,146.44T138,337.06q42.21,30,104.21,39.51t143.72,9.53H718.32v51.77H385.94V694H718.32v50.4H385.94q-70.85,0-131.46,8.17T148.91,787.28q-45,26.57-70.15,77.65T53.55,1000.47V1135q0,77.64,29.29,124t76.29,69.48q47,23.14,106.93,30a1060.85,1060.85,0,0,0,119.88,6.81V1671.7H616.16V1365.19H718.32v460.44h256.1V694h24.3V1825.63h256.1V1365.19H1357V1671.7h230.22V1365.19a1061,1061,0,0,0,119.88-6.81q60-6.83,106.93-30t76.29-69.48q29.31-46.34,29.28-124V1000.47q0-84.48-25.2-135.54t-70.15-77.65q-45-26.56-105.58-34.74t-131.45-8.17H1254.82V694h332.39V437.87H1254.82V386.1ZM718.32,1032.81v76.28H642v-76.28H385.94v76.28q-26.79,0-42.17-2t-22.75-10q-7.35-8.05-9.37-23.42a276.87,276.87,0,0,1-1.88-29c.29-8.32,1.78-15.6,4.65-21.72a37,37,0,0,1,15-16.34q10.21-6.14,30.65-6.13H718.32Zm894.77-32.34q20.43,0,30.65,6.13a37.09,37.09,0,0,1,15,16.34c2.86,6.12,4.36,13.4,4.64,21.72a271.49,271.49,0,0,1-1.88,29q-2,15.39-9.36,23.42t-22.76,10q-15.37,2-42.16,2v-76.28h-256.1v76.28h-76.29V1000.47Z"/></svg>